# xmcd CD database file
#
# Track frame offsets:
#	255
#	19391
#	40294
#	63170
#	77790
#	96050
#	108255
#	123012
#	137340
#	150237
#	171760
#
# Disc length: 2537 seconds
#
# Revision: 0
# Processed by: cddbd v1.4PL0 Copyright (c) Steve Scherf et al.
# Submitted via: CDex 1.50beta10
#
DISCID=7b09e60b
DTITLE=Rob Quist - Honor Bound
DYEAR=1998
DGENRE=Country
TTITLE0=The Big Deep Freeze
TTITLE1=Honor Bound
TTITLE2=Girl With Eyes Of Green
TTITLE3=The Lottery
TTITLE4=Waters Of The Salish
TTITLE5=The Horse Whisperer
TTITLE6=Golden Harvest
TTITLE7=The Children Of The World
TTITLE8=Way With Women
TTITLE9=Winkler Superior School
TTITLE10=Lay Down Easy
EXTD=YEAR: 1998
EXTT0=
EXTT1=
EXTT2=
EXTT3=
EXTT4=
EXTT5=
EXTT6=
EXTT7=
EXTT8=
EXTT9=
EXTT10=
PLAYORDER=
